<?xml version="1.0" standalone="no"?>
<!DOCTYPE svg PUBLIC "-//W3C//DTD SVG 20010904//EN"
 "http://www.w3.org/TR/2001/REC-SVG-20010904/DTD/svg10.dtd">
<svg version="1.0" xmlns="http://www.w3.org/2000/svg"
 width="400.000000pt" height="400.000000pt" viewBox="0 0 400.000000 400.000000"
 preserveAspectRatio="xMidYMid meet">
<metadata>
Created by potrace 1.11, written by Peter Selinger 2001-2013
</metadata>
<g transform="translate(0.000000,400.000000) scale(0.100000,-0.100000)"
fill="#000000" stroke="none">
<path d="M587 3879 c-16 -21 -12 -54 7 -67 6 -3 639 -7 1406 -7 1311 0 1396 1
1412 17 17 17 16 39 -5 66 -7 9 -301 12 -1408 12 l-1398 0 -14 -21z"/>
<path d="M352 3698 c-14 -14 -15 -47 -2 -68 8 -13 201 -15 1632 -16 947 0
1634 4 1651 9 20 7 27 15 27 36 0 15 -5 32 -12 39 -17 17 -3279 17 -3296 0z"/>
<path d="M325 3520 c-148 -6 -182 -18 -209 -74 -15 -31 -16 -174 -16 -1643 0
-1548 1 -1609 19 -1636 10 -15 29 -36 42 -45 22 -16 151 -17 1824 -20 1669 -2
1803 -1 1838 14 20 10 46 32 57 49 20 32 20 54 20 1645 0 1589 0 1613 -20
1645 -40 64 86 60 -1750 65 -921 3 -1733 3 -1805 0z"/>
</g>
</svg>
